<?xml version="1.0" encoding="UTF-8"?>
<svg xmlns="http://www.w3.org/2000/svg" xmlns:xlink="http://www.w3.org/1999/xlink" width="50px" height="41px" viewBox="0 0 49 41" version="1.1">
<g id="surface1">
<path style=" stroke:none;fill-rule:nonzero;fill:rgb(100%,100%,100%);fill-opacity:1;" d="M 29.101562 2.203125 C 27.925781 2.507812 27 3.058594 25.851562 4.144531 C 25.023438 4.925781 25.019531 4.914062 26.085938 5.390625 C 27.644531 6.089844 28.816406 6.910156 29.769531 7.984375 C 30.375 8.664062 30.1875 8.605469 29.007812 7.746094 C 28.066406 7.058594 26.492188 6.167969 25.457031 5.742188 C 24.859375 5.5 23.394531 5.394531 22.957031 5.570312 L 22.625 5.703125 L 23.375 6.085938 C 24.808594 6.820312 25.488281 7.574219 25.789062 8.757812 C 26.039062 9.734375 25.683594 10.445312 23.472656 13.402344 C 20.453125 17.4375 19.351562 19.070312 18.074219 21.371094 C 16.082031 24.964844 14.671875 29.214844 14.695312 31.5625 L 14.699219 31.882812 L 14.867188 31.59375 C 16.992188 27.914062 17.101562 27.75 18.84375 25.519531 C 20.285156 23.679688 23.765625 20.246094 23.976562 20.460938 C 24 20.488281 23.734375 20.867188 23.386719 21.3125 C 21.871094 23.238281 20.457031 25.734375 19.890625 27.488281 C 19.527344 28.601562 19.242188 29.972656 19.335938 30.136719 C 19.371094 30.203125 20.160156 31.417969 21.089844 32.839844 L 22.773438 35.425781 L 10.023438 35.425781 L 10.023438 36.820312 L 39.042969 36.820312 L 39.710938 37.207031 C 43.742188 39.570312 44.078125 39.746094 44.589844 39.761719 C 45.417969 39.792969 45.21875 39.613281 42.886719 38.269531 C 41.667969 37.566406 40.667969 36.953125 40.664062 36.90625 C 40.664062 36.859375 42.300781 36.820312 44.304688 36.820312 L 47.949219 36.820312 L 47.949219 35.425781 L 34.839844 35.425781 L 34.019531 34.8125 C 33.066406 34.097656 30.007812 31.890625 29.414062 31.492188 C 29.039062 31.238281 28.964844 31.226562 28.382812 31.347656 C 28.035156 31.417969 27.492188 31.476562 27.175781 31.476562 C 26.652344 31.480469 26.621094 31.492188 26.847656 31.621094 C 27.109375 31.769531 27.5625 32.0625 30.355469 33.875 C 31.230469 34.445312 32.128906 35.027344 32.347656 35.167969 L 32.746094 35.421875 L 24.160156 35.425781 L 23.382812 34.195312 C 22.957031 33.519531 22.269531 32.433594 21.851562 31.785156 C 20.953125 30.375 20.890625 30.492188 22.441406 30.667969 C 34.054688 31.976562 42.363281 22.617188 39.25 11.730469 C 37.4375 5.382812 32.980469 1.199219 29.101562 2.203125 Z M 32.601562 5.132812 C 32.871094 5.449219 32.855469 5.792969 32.554688 6.121094 C 31.9375 6.789062 30.902344 6.023438 31.328125 5.210938 C 31.582031 4.730469 32.226562 4.691406 32.601562 5.132812 Z M 15.824219 23.972656 C 15.734375 24.0625 14.480469 24.90625 13.042969 25.847656 C 11.601562 26.792969 9.550781 28.144531 8.484375 28.859375 C 7.421875 29.570312 6.308594 30.304688 6.011719 30.496094 C 4.253906 31.617188 0.789062 33.949219 0.726562 34.054688 C 0.671875 34.148438 1.464844 34.164062 3.550781 34.121094 L 6.453125 34.058594 L 7.355469 33.484375 C 13.492188 29.589844 14.183594 29.121094 14.203125 28.820312 C 14.238281 28.382812 15.050781 26.097656 15.570312 24.988281 C 16.074219 23.90625 16.132812 23.675781 15.824219 23.976562 Z M 15.824219 23.972656 "/>
</g>
</svg>
