<?xml version="1.0" encoding="UTF-8"?>
<svg xmlns="http://www.w3.org/2000/svg" xmlns:xlink="http://www.w3.org/1999/xlink" width="135px" height="50px" viewBox="0 0 134 50" version="1.1">
<g id="surface1">
<path style=" stroke:none;fill-rule:nonzero;fill:rgb(100%,100%,100%);fill-opacity:1;" d="M 75.96875 1.808594 C 72.132812 2.703125 70.226562 4.730469 70.210938 7.941406 C 70.1875 11.679688 72.273438 13.394531 78.964844 15.144531 C 82.214844 15.992188 83.320312 17.46875 81.785156 18.898438 C 80.039062 20.523438 76.621094 19.46875 76.191406 17.171875 C 75.976562 16.027344 75.988281 16.03125 72.40625 16.230469 L 69.230469 16.40625 L 69.382812 17.410156 C 69.617188 18.957031 70.890625 21.34375 71.972656 22.277344 C 75.1875 25.035156 84.035156 24.75 87.0625 21.792969 L 87.949219 20.925781 L 88.117188 21.933594 C 88.742188 25.632812 92.488281 29.113281 96.800781 29.992188 L 98.183594 30.273438 L 97.367188 31.347656 C 94.667969 34.894531 94.589844 42.148438 97.214844 45.914062 C 101.226562 51.679688 112.519531 51.511719 116.234375 45.632812 L 116.929688 44.539062 L 116.929688 49.757812 L 134.429688 49.757812 L 134.429688 44.148438 L 123.976562 44.148438 L 123.976562 27.804688 L 116.929688 27.804688 L 116.914062 30.304688 C 116.902344 32.347656 116.847656 32.71875 116.609375 32.328125 C 115.269531 30.125 112.664062 28.292969 110.105469 27.765625 L 108.726562 27.476562 L 110.125 26.421875 C 114.476562 23.140625 117.1875 17.15625 116.492188 12.363281 C 114.660156 -0.230469 96.582031 -0.425781 89.695312 12.074219 C 89.25 12.878906 88.871094 13.5625 88.851562 13.59375 C 88.832031 13.625 88.214844 13.0625 87.472656 12.34375 C 85.941406 10.855469 84.707031 10.308594 80.519531 9.269531 C 76.625 8.300781 75.828125 7.621094 77.136719 6.382812 C 78.382812 5.210938 81.09375 5.96875 81.707031 7.667969 C 82.0625 8.660156 82 8.652344 86.140625 8.375 L 88.535156 8.21875 L 88.382812 7.257812 C 87.675781 2.820312 82.109375 0.378906 75.96875 1.8125 Z M 1.460938 12.925781 L 1.460938 23.902344 L 8.507812 23.902344 L 8.507812 15.121094 L 9.226562 15.121094 C 10.355469 15.121094 11.039062 15.953125 13.21875 20 L 15.257812 23.777344 L 19.179688 23.84375 C 21.335938 23.882812 23.097656 23.847656 23.097656 23.765625 C 23.097656 22.53125 18.703125 15.398438 17.484375 14.65625 L 16.816406 14.246094 L 18.164062 13.539062 C 23.164062 10.914062 22.21875 3.386719 16.738281 2.207031 C 16.046875 2.058594 12.542969 1.949219 8.496094 1.949219 L 1.460938 1.949219 Z M 108.195312 3.863281 C 119.199219 6.742188 118.191406 22.230469 106.632812 27.886719 C 94.855469 33.648438 84.363281 24.1875 89.960938 12.859375 C 93.226562 6.25 101.578125 2.128906 108.195312 3.863281 Z M 13.367188 6.898438 C 15.84375 8.15625 14.199219 10.472656 10.691406 10.671875 L 8.507812 10.796875 L 8.507812 6.585938 L 10.636719 6.585938 C 11.855469 6.589844 13.019531 6.722656 13.367188 6.898438 Z M 104.304688 8.839844 C 102.371094 9.355469 100.402344 11.316406 100.398438 12.734375 C 100.394531 15.046875 102.238281 15.878906 105.136719 14.878906 C 106.910156 14.265625 107.363281 14.265625 107.691406 14.878906 C 108.25 15.925781 106.425781 16.988281 105.363281 16.238281 C 104.828125 15.863281 102.859375 17.046875 102.839844 17.753906 C 102.808594 18.820312 105.496094 19.222656 107.140625 18.402344 C 112.371094 15.785156 110.886719 10.175781 105.460938 12.050781 C 103.292969 12.800781 102.828125 12.835938 102.828125 12.230469 C 102.828125 11.285156 104.304688 10.601562 104.945312 11.246094 C 105.210938 11.507812 107.203125 10.183594 107.203125 9.742188 C 107.203125 9.085938 105.4375 8.535156 104.304688 8.835938 Z M 96.457031 14.101562 C 95.296875 14.945312 95.242188 14.726562 97.371094 17.753906 C 98.679688 19.617188 99.183594 20.539062 99.132812 20.976562 C 99.046875 21.722656 98.214844 21.917969 97.628906 21.332031 C 97.253906 20.960938 97.160156 20.988281 96.277344 21.746094 C 94.050781 23.660156 97.433594 25.300781 99.949219 23.53125 C 102.710938 21.582031 102.714844 20.375 99.96875 16.351562 C 97.839844 13.234375 97.742188 13.171875 96.457031 14.101562 Z M 7.222656 27.566406 C 3.246094 28.195312 0.917969 30.53125 0.886719 33.917969 C 0.855469 37.375 3.089844 39.34375 8.621094 40.730469 C 12.011719 41.582031 13.125 42.234375 13.125 43.351562 C 13.125 46.507812 7.5 46.191406 6.902344 43.003906 C 6.695312 41.890625 6.722656 41.898438 3.132812 42.09375 L -0.0507812 42.265625 L 0.105469 43.265625 C 0.832031 47.851562 3.488281 49.757812 9.410156 49.945312 C 14.101562 50.089844 15.714844 49.636719 17.765625 47.578125 L 19.167969 46.171875 L 19.683594 46.871094 C 22.667969 50.917969 32.742188 51.1875 36.046875 47.3125 C 37.015625 46.179688 38.101562 44.042969 38.210938 43.0625 C 38.289062 42.367188 38.269531 42.355469 35.320312 41.457031 L 32.351562 40.554688 L 31.953125 41.757812 C 30.59375 45.859375 25.464844 45.90625 24.339844 41.828125 C 23.957031 40.441406 24.003906 37.132812 24.425781 35.703125 C 25.449219 32.257812 29.761719 31.550781 31.515625 34.542969 C 32.246094 35.792969 32.046875 35.769531 35.363281 35.019531 C 38.515625 34.304688 38.382812 34.429688 37.664062 32.875 C 34.808594 26.714844 25.21875 25.269531 20.132812 30.230469 L 18.714844 31.617188 L 18.125 30.609375 C 16.65625 28.09375 12.03125 26.804688 7.226562 27.566406 Z M 74.386719 27.574219 C 71.695312 28.042969 69.035156 29.742188 67.53125 31.953125 C 67.128906 32.546875 67.121094 32.496094 67.105469 30.183594 L 67.09375 27.804688 L 60.042969 27.804688 L 60.042969 35.363281 L 52.996094 35.363281 L 52.996094 27.804688 L 45.945312 27.804688 L 45.945312 49.753906 L 52.996094 49.753906 L 52.996094 40.972656 L 60.042969 40.972656 L 60.042969 49.753906 L 67.09375 49.753906 L 67.09375 44.792969 L 67.855469 45.945312 C 71.023438 50.742188 80.820312 51.582031 85.277344 47.441406 C 90.4375 42.648438 89.425781 31.746094 83.542969 28.734375 C 81.273438 27.570312 77.285156 27.066406 74.386719 27.570312 Z M 11.175781 32.070312 C 11.582031 32.28125 12.058594 32.851562 12.316406 33.441406 L 12.761719 34.449219 L 17.511719 34.222656 L 17.355469 35.464844 C 17.148438 37.109375 17.058594 37.171875 15.695312 36.566406 C 15.054688 36.285156 13.257812 35.730469 11.703125 35.339844 C 8.023438 34.414062 7.566406 34.214844 7.375 33.464844 C 7.027344 32.074219 9.460938 31.179688 11.179688 32.070312 Z M 78.558594 32.933594 C 82.15625 33.9375 82.886719 42.226562 79.546875 44.199219 C 77.054688 45.671875 73.898438 44.417969 73.160156 41.660156 C 71.6875 36.179688 74.414062 31.777344 78.558594 32.933594 Z M 107.949219 32.925781 C 112.132812 34.09375 112.046875 43.523438 107.84375 44.660156 C 104.464844 45.570312 102.214844 43.214844 102.230469 38.78125 C 102.25 34.171875 104.425781 31.945312 107.949219 32.929688 Z M 107.949219 32.925781 "/>
</g>
</svg>
