<svg width="178" height="13" viewBox="0 0 178 13" fill="none" xmlns="http://www.w3.org/2000/svg">
<path d="M0.583984 7.01025L1.74561 6.90869C1.80062 7.37419 1.92757 7.75716 2.12646 8.05762C2.32959 8.35384 2.64274 8.59505 3.06592 8.78125C3.4891 8.96322 3.96517 9.0542 4.49414 9.0542C4.96387 9.0542 5.37858 8.98438 5.73828 8.84473C6.09798 8.70508 6.36458 8.51465 6.53809 8.27344C6.71582 8.02799 6.80469 7.76139 6.80469 7.47363C6.80469 7.18164 6.72005 6.92773 6.55078 6.71191C6.38151 6.49186 6.10221 6.30778 5.71289 6.15967C5.46322 6.06234 4.91097 5.91211 4.05615 5.70898C3.20133 5.50163 2.60254 5.30697 2.25977 5.125C1.81543 4.89225 1.48324 4.60449 1.26318 4.26172C1.04736 3.91471 0.939453 3.52751 0.939453 3.1001C0.939453 2.63037 1.07275 2.19238 1.33936 1.78613C1.60596 1.37565 1.99528 1.06462 2.50732 0.853027C3.01937 0.641439 3.58854 0.535645 4.21484 0.535645C4.90462 0.535645 5.51188 0.647786 6.03662 0.87207C6.56559 1.09212 6.97184 1.41797 7.25537 1.84961C7.5389 2.28125 7.69124 2.77002 7.7124 3.31592L6.53174 3.40479C6.46826 2.81657 6.25244 2.37223 5.88428 2.07178C5.52035 1.77132 4.98079 1.62109 4.26562 1.62109C3.52083 1.62109 2.97705 1.75863 2.63428 2.03369C2.29574 2.30452 2.12646 2.63249 2.12646 3.01758C2.12646 3.35189 2.24707 3.62695 2.48828 3.84277C2.72526 4.05859 3.3431 4.28076 4.3418 4.50928C5.34473 4.73356 6.03239 4.93034 6.40479 5.09961C6.94645 5.34928 7.34635 5.66667 7.60449 6.05176C7.86263 6.43262 7.9917 6.87272 7.9917 7.37207C7.9917 7.86719 7.84993 8.3348 7.56641 8.7749C7.28288 9.21077 6.87451 9.55143 6.34131 9.79688C5.81234 10.0381 5.21566 10.1587 4.55127 10.1587C3.70915 10.1587 3.00244 10.036 2.43115 9.79053C1.8641 9.54508 1.41764 9.17692 1.0918 8.68604C0.770182 8.19092 0.600911 7.63232 0.583984 7.01025ZM10.8278 10V0.694336H11.9704V4.0332C12.5036 3.41536 13.1765 3.10645 13.989 3.10645C14.4883 3.10645 14.9221 3.20589 15.2902 3.40479C15.6584 3.59945 15.9208 3.87028 16.0773 4.21729C16.2382 4.56429 16.3186 5.06787 16.3186 5.72803V10H15.176V5.72803C15.176 5.15674 15.0511 4.74202 14.8015 4.48389C14.556 4.22152 14.2069 4.09033 13.7541 4.09033C13.4156 4.09033 13.0961 4.1792 12.7956 4.35693C12.4994 4.53044 12.2878 4.76742 12.1608 5.06787C12.0339 5.36833 11.9704 5.78304 11.9704 6.31201V10H10.8278ZM23.9789 7.8291L25.1596 7.9751C24.9734 8.66488 24.6285 9.2002 24.1249 9.58105C23.6213 9.96191 22.9781 10.1523 22.1952 10.1523C21.2092 10.1523 20.4263 9.84977 19.8466 9.24463C19.2711 8.63525 18.9833 7.78255 18.9833 6.68652C18.9833 5.55241 19.2753 4.6722 19.8593 4.0459C20.4433 3.4196 21.2007 3.10645 22.1317 3.10645C23.0331 3.10645 23.7694 3.41325 24.3407 4.02686C24.912 4.64046 25.1977 5.50374 25.1977 6.6167C25.1977 6.68441 25.1955 6.78597 25.1913 6.92139H20.164C20.2063 7.66195 20.4158 8.229 20.7924 8.62256C21.169 9.01611 21.6387 9.21289 22.2016 9.21289C22.6205 9.21289 22.9781 9.10286 23.2743 8.88281C23.5705 8.66276 23.8054 8.31152 23.9789 7.8291ZM20.2274 5.98193H23.9916C23.9408 5.41488 23.7969 4.98958 23.56 4.70605C23.196 4.26595 22.7242 4.0459 22.1444 4.0459C21.6197 4.0459 21.1775 4.22152 20.8178 4.57275C20.4623 4.92399 20.2655 5.39372 20.2274 5.98193ZM27.8751 10V0.694336H29.0177V10H27.8751ZM34.5896 8.97803L34.7547 9.9873C34.4331 10.055 34.1453 10.0889 33.8914 10.0889C33.4767 10.0889 33.1551 10.0233 32.9266 9.89209C32.698 9.7609 32.5372 9.58952 32.4441 9.37793C32.351 9.16211 32.3045 8.71143 32.3045 8.02588V4.14746H31.4666V3.25879H32.3045V1.58936L33.4407 0.903809V3.25879H34.5896V4.14746H33.4407V8.08936C33.4407 8.4152 33.4598 8.62467 33.4979 8.71777C33.5402 8.81087 33.6058 8.88493 33.6946 8.93994C33.7877 8.99495 33.9189 9.02246 34.0882 9.02246C34.2151 9.02246 34.3823 9.00765 34.5896 8.97803ZM41.6279 7.8291L42.8086 7.9751C42.6224 8.66488 42.2775 9.2002 41.7739 9.58105C41.2703 9.96191 40.6271 10.1523 39.8442 10.1523C38.8582 10.1523 38.0754 9.84977 37.4956 9.24463C36.9201 8.63525 36.6323 7.78255 36.6323 6.68652C36.6323 5.55241 36.9243 4.6722 37.5083 4.0459C38.0923 3.4196 38.8498 3.10645 39.7808 3.10645C40.6821 3.10645 41.4185 3.41325 41.9897 4.02686C42.561 4.64046 42.8467 5.50374 42.8467 6.6167C42.8467 6.68441 42.8446 6.78597 42.8403 6.92139H37.813C37.8553 7.66195 38.0648 8.229 38.4414 8.62256C38.818 9.01611 39.2878 9.21289 39.8506 9.21289C40.2695 9.21289 40.6271 9.10286 40.9233 8.88281C41.2196 8.66276 41.4544 8.31152 41.6279 7.8291ZM37.8765 5.98193H41.6406C41.5898 5.41488 41.446 4.98958 41.209 4.70605C40.8451 4.26595 40.3732 4.0459 39.7935 4.0459C39.2687 4.0459 38.8265 4.22152 38.4668 4.57275C38.1113 4.92399 37.9146 5.39372 37.8765 5.98193ZM45.5368 10V3.25879H46.5651V4.28076C46.8275 3.80257 47.0687 3.4873 47.2888 3.33496C47.5131 3.18262 47.7585 3.10645 48.0251 3.10645C48.4102 3.10645 48.8016 3.22917 49.1994 3.47461L48.8059 4.53467C48.5266 4.36963 48.2473 4.28711 47.968 4.28711C47.7183 4.28711 47.494 4.36328 47.2951 4.51562C47.0962 4.66374 46.9545 4.87109 46.8698 5.1377C46.7429 5.54395 46.6794 5.98828 46.6794 6.4707V10H45.5368ZM56.3697 10V4.14746H55.3605V3.25879H56.3697V2.5415C56.3697 2.0887 56.4099 1.75228 56.4903 1.53223C56.6004 1.236 56.7929 0.996908 57.068 0.814941C57.3473 0.628743 57.7366 0.535645 58.2359 0.535645C58.5576 0.535645 58.913 0.57373 59.3023 0.649902L59.131 1.64648C58.894 1.60417 58.6697 1.58301 58.4581 1.58301C58.1111 1.58301 57.8657 1.65706 57.7218 1.80518C57.5779 1.95329 57.506 2.23047 57.506 2.63672V3.25879H58.8199V4.14746H57.506V10H56.3697ZM60.5896 6.62939C60.5896 5.38102 60.9367 4.45638 61.6307 3.85547C62.2104 3.35612 62.9171 3.10645 63.7508 3.10645C64.6775 3.10645 65.435 3.41113 66.0232 4.02051C66.6115 4.62565 66.9056 5.46354 66.9056 6.53418C66.9056 7.40169 66.7744 8.08512 66.512 8.58447C66.2539 9.07959 65.8751 9.46468 65.3758 9.73975C64.8807 10.0148 64.339 10.1523 63.7508 10.1523C62.8071 10.1523 62.0433 9.84977 61.4593 9.24463C60.8795 8.63949 60.5896 7.76774 60.5896 6.62939ZM61.764 6.62939C61.764 7.49268 61.9523 8.14014 62.3289 8.57178C62.7055 8.99919 63.1795 9.21289 63.7508 9.21289C64.3178 9.21289 64.7897 8.99707 65.1663 8.56543C65.5429 8.13379 65.7313 7.47575 65.7313 6.59131C65.7313 5.75765 65.5408 5.12712 65.16 4.69971C64.7833 4.26807 64.3136 4.05225 63.7508 4.05225C63.1795 4.05225 62.7055 4.26595 62.3289 4.69336C61.9523 5.12077 61.764 5.76611 61.764 6.62939ZM69.5386 10V3.25879H70.5669V4.28076C70.8293 3.80257 71.0705 3.4873 71.2905 3.33496C71.5148 3.18262 71.7603 3.10645 72.0269 3.10645C72.4119 3.10645 72.8034 3.22917 73.2012 3.47461L72.8076 4.53467C72.5283 4.36963 72.249 4.28711 71.9697 4.28711C71.7201 4.28711 71.4958 4.36328 71.2969 4.51562C71.098 4.66374 70.9562 4.87109 70.8716 5.1377C70.7446 5.54395 70.6812 5.98828 70.6812 6.4707V10H69.5386ZM80.0985 12.5835V3.25879H81.1395V4.13477C81.385 3.79199 81.6622 3.53597 81.9711 3.3667C82.28 3.1932 82.6545 3.10645 83.0946 3.10645C83.6701 3.10645 84.178 3.25456 84.6181 3.55078C85.0582 3.84701 85.3904 4.26595 85.6146 4.80762C85.8389 5.34505 85.9511 5.93538 85.9511 6.57861C85.9511 7.26839 85.8262 7.89046 85.5766 8.44482C85.3311 8.99495 84.9714 9.41813 84.4975 9.71436C84.0277 10.0063 83.5326 10.1523 83.0121 10.1523C82.6312 10.1523 82.2885 10.0719 81.9838 9.91113C81.6833 9.75033 81.4358 9.5472 81.2411 9.30176V12.5835H80.0985ZM81.1332 6.66748C81.1332 7.53499 81.3088 8.17611 81.6601 8.59082C82.0113 9.00553 82.4366 9.21289 82.9359 9.21289C83.4437 9.21289 83.8775 8.99919 84.2372 8.57178C84.6011 8.14014 84.7831 7.47363 84.7831 6.57227C84.7831 5.71322 84.6054 5.06999 84.2499 4.64258C83.8987 4.21517 83.4776 4.00146 82.9867 4.00146C82.5001 4.00146 82.0684 4.22998 81.6918 4.68701C81.3194 5.13981 81.1332 5.79997 81.1332 6.66748ZM93.2496 7.8291L94.4303 7.9751C94.2441 8.66488 93.8992 9.2002 93.3956 9.58105C92.892 9.96191 92.2488 10.1523 91.4659 10.1523C90.4799 10.1523 89.697 9.84977 89.1173 9.24463C88.5418 8.63525 88.254 7.78255 88.254 6.68652C88.254 5.55241 88.546 4.6722 89.13 4.0459C89.714 3.4196 90.4715 3.10645 91.4024 3.10645C92.3038 3.10645 93.0401 3.41325 93.6114 4.02686C94.1827 4.64046 94.4684 5.50374 94.4684 6.6167C94.4684 6.68441 94.4662 6.78597 94.462 6.92139H89.4347C89.477 7.66195 89.6865 8.229 90.0631 8.62256C90.4397 9.01611 90.9094 9.21289 91.4723 9.21289C91.8912 9.21289 92.2488 9.10286 92.545 8.88281C92.8412 8.66276 93.0761 8.31152 93.2496 7.8291ZM89.4981 5.98193H93.2623C93.2115 5.41488 93.0676 4.98958 92.8307 4.70605C92.4667 4.26595 91.9949 4.0459 91.4151 4.0459C90.8904 4.0459 90.4482 4.22152 90.0885 4.57275C89.733 4.92399 89.5362 5.39372 89.4981 5.98193ZM99.6658 8.97803L99.8309 9.9873C99.5092 10.055 99.2215 10.0889 98.9676 10.0889C98.5529 10.0889 98.2312 10.0233 98.0027 9.89209C97.7742 9.7609 97.6134 9.58952 97.5203 9.37793C97.4272 9.16211 97.3807 8.71143 97.3807 8.02588V4.14746H96.5428V3.25879H97.3807V1.58936L98.5169 0.903809V3.25879H99.6658V4.14746H98.5169V8.08936C98.5169 8.4152 98.5359 8.62467 98.574 8.71777C98.6163 8.81087 98.6819 8.88493 98.7708 8.93994C98.8639 8.99495 98.9951 9.02246 99.1644 9.02246C99.2913 9.02246 99.4585 9.00765 99.6658 8.97803ZM101.632 7.98779L102.762 7.81006C102.826 8.26286 103.001 8.60986 103.289 8.85107C103.581 9.09229 103.987 9.21289 104.508 9.21289C105.033 9.21289 105.422 9.1071 105.676 8.89551C105.93 8.67969 106.057 8.4279 106.057 8.14014C106.057 7.882 105.944 7.67887 105.72 7.53076C105.564 7.4292 105.174 7.30013 104.552 7.14355C103.714 6.93197 103.132 6.75 102.807 6.59766C102.485 6.44108 102.24 6.22738 102.07 5.95654C101.905 5.68148 101.823 5.37891 101.823 5.04883C101.823 4.74837 101.89 4.47119 102.026 4.21729C102.166 3.95915 102.354 3.74544 102.591 3.57617C102.769 3.44499 103.01 3.33496 103.314 3.24609C103.623 3.15299 103.953 3.10645 104.305 3.10645C104.834 3.10645 105.297 3.18262 105.695 3.33496C106.097 3.4873 106.393 3.69466 106.583 3.95703C106.774 4.21517 106.905 4.56217 106.977 4.99805L105.86 5.15039C105.809 4.80339 105.661 4.53255 105.416 4.33789C105.174 4.14323 104.832 4.0459 104.387 4.0459C103.862 4.0459 103.488 4.13265 103.264 4.30615C103.039 4.47965 102.927 4.68278 102.927 4.91553C102.927 5.06364 102.974 5.19694 103.067 5.31543C103.16 5.43815 103.306 5.53971 103.505 5.62012C103.619 5.66243 103.956 5.75977 104.514 5.91211C105.322 6.12793 105.885 6.30566 106.203 6.44531C106.524 6.58073 106.776 6.77962 106.958 7.04199C107.14 7.30436 107.231 7.63021 107.231 8.01953C107.231 8.40039 107.119 8.76009 106.895 9.09863C106.674 9.43294 106.355 9.6932 105.936 9.87939C105.517 10.0614 105.043 10.1523 104.514 10.1523C103.638 10.1523 102.97 9.97038 102.508 9.60645C102.051 9.24251 101.759 8.70296 101.632 7.98779ZM114.814 2.0083V0.694336H115.956V2.0083H114.814ZM114.814 10V3.25879H115.956V10H114.814ZM119.002 10V3.25879H120.03V4.21729C120.525 3.47673 121.241 3.10645 122.176 3.10645C122.582 3.10645 122.955 3.1805 123.293 3.32861C123.636 3.47249 123.892 3.66292 124.061 3.8999C124.23 4.13688 124.349 4.41829 124.417 4.74414C124.459 4.95573 124.48 5.32601 124.48 5.85498V10H123.338V5.89941C123.338 5.43392 123.293 5.08691 123.204 4.8584C123.115 4.62565 122.957 4.44157 122.728 4.30615C122.504 4.1665 122.239 4.09668 121.935 4.09668C121.448 4.09668 121.027 4.25114 120.671 4.56006C120.32 4.86898 120.145 5.45508 120.145 6.31836V10H119.002ZM132.552 10V0.694336H136.043C136.754 0.694336 137.323 0.789551 137.75 0.97998C138.182 1.16618 138.519 1.45605 138.76 1.84961C139.005 2.23893 139.128 2.6473 139.128 3.07471C139.128 3.47249 139.02 3.84701 138.804 4.19824C138.588 4.54948 138.263 4.83301 137.827 5.04883C138.389 5.21387 138.821 5.49528 139.122 5.89307C139.426 6.29085 139.579 6.76058 139.579 7.30225C139.579 7.73812 139.486 8.14437 139.299 8.521C139.117 8.89339 138.891 9.18115 138.62 9.38428C138.349 9.5874 138.009 9.74186 137.598 9.84766C137.192 9.94922 136.693 10 136.1 10H132.552ZM133.783 4.60449H135.795C136.341 4.60449 136.733 4.56852 136.97 4.49658C137.283 4.40348 137.518 4.24902 137.674 4.0332C137.835 3.81738 137.916 3.54655 137.916 3.2207C137.916 2.91178 137.841 2.64095 137.693 2.4082C137.545 2.17122 137.334 2.01042 137.059 1.92578C136.784 1.83691 136.312 1.79248 135.643 1.79248H133.783V4.60449ZM133.783 8.90186H136.1C136.498 8.90186 136.777 8.88704 136.938 8.85742C137.222 8.80664 137.458 8.72201 137.649 8.60352C137.839 8.48503 137.996 8.31364 138.119 8.08936C138.241 7.86084 138.303 7.59847 138.303 7.30225C138.303 6.95524 138.214 6.65479 138.036 6.40088C137.858 6.14274 137.611 5.96289 137.293 5.86133C136.98 5.75553 136.528 5.70264 135.935 5.70264H133.783V8.90186ZM142.002 6.62939C142.002 5.38102 142.349 4.45638 143.043 3.85547C143.623 3.35612 144.33 3.10645 145.163 3.10645C146.09 3.10645 146.848 3.41113 147.436 4.02051C148.024 4.62565 148.318 5.46354 148.318 6.53418C148.318 7.40169 148.187 8.08512 147.925 8.58447C147.666 9.07959 147.288 9.46468 146.788 9.73975C146.293 10.0148 145.752 10.1523 145.163 10.1523C144.22 10.1523 143.456 9.84977 142.872 9.24463C142.292 8.63949 142.002 7.76774 142.002 6.62939ZM143.176 6.62939C143.176 7.49268 143.365 8.14014 143.741 8.57178C144.118 8.99919 144.592 9.21289 145.163 9.21289C145.73 9.21289 146.202 8.99707 146.579 8.56543C146.955 8.13379 147.144 7.47575 147.144 6.59131C147.144 5.75765 146.953 5.12712 146.572 4.69971C146.196 4.26807 145.726 4.05225 145.163 4.05225C144.592 4.05225 144.118 4.26595 143.741 4.69336C143.365 5.12077 143.176 5.76611 143.176 6.62939ZM150.507 7.98779L151.637 7.81006C151.7 8.26286 151.876 8.60986 152.163 8.85107C152.455 9.09229 152.862 9.21289 153.382 9.21289C153.907 9.21289 154.296 9.1071 154.55 8.89551C154.804 8.67969 154.931 8.4279 154.931 8.14014C154.931 7.882 154.819 7.67887 154.595 7.53076C154.438 7.4292 154.049 7.30013 153.427 7.14355C152.589 6.93197 152.007 6.75 151.681 6.59766C151.359 6.44108 151.114 6.22738 150.945 5.95654C150.78 5.68148 150.697 5.37891 150.697 5.04883C150.697 4.74837 150.765 4.47119 150.9 4.21729C151.04 3.95915 151.228 3.74544 151.465 3.57617C151.643 3.44499 151.884 3.33496 152.189 3.24609C152.498 3.15299 152.828 3.10645 153.179 3.10645C153.708 3.10645 154.171 3.18262 154.569 3.33496C154.971 3.4873 155.267 3.69466 155.458 3.95703C155.648 4.21517 155.78 4.56217 155.851 4.99805L154.734 5.15039C154.684 4.80339 154.535 4.53255 154.29 4.33789C154.049 4.14323 153.706 4.0459 153.262 4.0459C152.737 4.0459 152.362 4.13265 152.138 4.30615C151.914 4.47965 151.802 4.68278 151.802 4.91553C151.802 5.06364 151.848 5.19694 151.941 5.31543C152.034 5.43815 152.18 5.53971 152.379 5.62012C152.494 5.66243 152.83 5.75977 153.389 5.91211C154.197 6.12793 154.76 6.30566 155.077 6.44531C155.399 6.58073 155.65 6.77962 155.832 7.04199C156.014 7.30436 156.105 7.63021 156.105 8.01953C156.105 8.40039 155.993 8.76009 155.769 9.09863C155.549 9.43294 155.229 9.6932 154.81 9.87939C154.392 10.0614 153.918 10.1523 153.389 10.1523C152.513 10.1523 151.844 9.97038 151.383 9.60645C150.926 9.24251 150.634 8.70296 150.507 7.98779ZM161.258 8.97803L161.423 9.9873C161.102 10.055 160.814 10.0889 160.56 10.0889C160.145 10.0889 159.824 10.0233 159.595 9.89209C159.367 9.7609 159.206 9.58952 159.113 9.37793C159.02 9.16211 158.973 8.71143 158.973 8.02588V4.14746H158.135V3.25879H158.973V1.58936L160.109 0.903809V3.25879H161.258V4.14746H160.109V8.08936C160.109 8.4152 160.129 8.62467 160.167 8.71777C160.209 8.81087 160.275 8.88493 160.363 8.93994C160.456 8.99495 160.588 9.02246 160.757 9.02246C160.884 9.02246 161.051 9.00765 161.258 8.97803ZM163.257 6.62939C163.257 5.38102 163.604 4.45638 164.298 3.85547C164.877 3.35612 165.584 3.10645 166.418 3.10645C167.345 3.10645 168.102 3.41113 168.69 4.02051C169.278 4.62565 169.573 5.46354 169.573 6.53418C169.573 7.40169 169.441 8.08512 169.179 8.58447C168.921 9.07959 168.542 9.46468 168.043 9.73975C167.548 10.0148 167.006 10.1523 166.418 10.1523C165.474 10.1523 164.71 9.84977 164.126 9.24463C163.547 8.63949 163.257 7.76774 163.257 6.62939ZM164.431 6.62939C164.431 7.49268 164.619 8.14014 164.996 8.57178C165.373 8.99919 165.846 9.21289 166.418 9.21289C166.985 9.21289 167.457 8.99707 167.833 8.56543C168.21 8.13379 168.398 7.47575 168.398 6.59131C168.398 5.75765 168.208 5.12712 167.827 4.69971C167.45 4.26807 166.981 4.05225 166.418 4.05225C165.846 4.05225 165.373 4.26595 164.996 4.69336C164.619 5.12077 164.431 5.76611 164.431 6.62939ZM172.218 10V3.25879H173.247V4.21729C173.742 3.47673 174.457 3.10645 175.392 3.10645C175.798 3.10645 176.171 3.1805 176.509 3.32861C176.852 3.47249 177.108 3.66292 177.277 3.8999C177.447 4.13688 177.565 4.41829 177.633 4.74414C177.675 4.95573 177.696 5.32601 177.696 5.85498V10H176.554V5.89941C176.554 5.43392 176.509 5.08691 176.42 4.8584C176.332 4.62565 176.173 4.44157 175.944 4.30615C175.72 4.1665 175.456 4.09668 175.151 4.09668C174.664 4.09668 174.243 4.25114 173.888 4.56006C173.536 4.86898 173.361 5.45508 173.361 6.31836V10H172.218Z" fill="white"/>
</svg>
