<?xml version="1.0" encoding="UTF-8"?>
<svg xmlns="http://www.w3.org/2000/svg" xmlns:xlink="http://www.w3.org/1999/xlink" width="176px" height="40px" viewBox="0 0 175 40" version="1.1">
<g id="surface1">
<path style=" stroke:none;fill-rule:nonzero;fill:rgb(100%,100%,100%);fill-opacity:1;" d="M 23.023438 14.855469 L 33.535156 14.855469 L 33.535156 33.589844 L 0.128906 33.589844 L 0.128906 14.855469 L 10.640625 14.855469 L 10.640625 24.183594 L 22.984375 24.183594 Z M 58.566406 24.453125 C 58.566406 27.640625 56.503906 29.480469 53.636719 29.480469 C 50.847656 29.480469 48.746094 27.601562 48.746094 24.453125 L 48.746094 9.367188 L 44.082031 9.367188 L 44.082031 24.375 C 44.082031 30.289062 48.285156 34.050781 53.675781 34.050781 C 59.066406 34.050781 63.269531 30.289062 63.269531 24.375 L 63.269531 9.367188 L 58.605469 9.367188 Z M 75.269531 16.316406 C 73.472656 16.316406 71.484375 17.082031 70.453125 18.847656 L 70.453125 16.777344 L 66.097656 16.777344 L 66.097656 33.511719 L 70.605469 33.511719 L 70.605469 23.878906 C 70.605469 21.957031 71.753906 20.421875 73.742188 20.421875 C 75.917969 20.421875 76.835938 21.882812 76.835938 23.761719 L 76.835938 33.511719 L 81.347656 33.511719 L 81.347656 22.957031 C 81.308594 19.269531 79.398438 16.316406 75.269531 16.316406 Z M 91.820312 23.378906 L 89.335938 22.878906 C 88.378906 22.6875 87.804688 22.1875 87.804688 21.382812 C 87.804688 20.421875 88.648438 19.730469 89.832031 19.730469 C 91.511719 19.730469 92.164062 20.574219 92.316406 21.613281 L 96.214844 21.613281 C 96.175781 19.308594 94.378906 16.316406 89.90625 16.316406 C 86.316406 16.316406 83.679688 18.808594 83.679688 21.804688 C 83.679688 24.144531 85.128906 26.105469 88.339844 26.792969 L 90.671875 27.292969 C 91.972656 27.5625 92.46875 28.175781 92.46875 28.945312 C 92.46875 29.828125 91.664062 30.59375 90.175781 30.59375 C 88.378906 30.59375 87.386719 29.558594 87.15625 28.367188 L 83.144531 28.367188 C 83.371094 30.863281 85.167969 34.050781 90.214844 34.050781 C 94.570312 34.050781 96.789062 31.246094 96.789062 28.523438 C 96.789062 26.066406 95.105469 24.070312 91.820312 23.378906 Z M 115.972656 25.105469 C 115.972656 30.171875 112.800781 33.933594 108.101562 33.933594 C 105.808594 33.933594 104.085938 33.011719 103.285156 31.898438 L 103.285156 40 L 98.773438 40 L 98.773438 16.777344 L 103.171875 16.777344 L 103.171875 18.847656 C 103.933594 17.542969 105.769531 16.390625 108.292969 16.390625 C 113.144531 16.390625 115.972656 20.113281 115.972656 25.105469 Z M 111.503906 25.144531 C 111.503906 22.1875 109.667969 20.460938 107.375 20.460938 C 105.082031 20.460938 103.207031 22.1875 103.207031 25.144531 C 103.207031 28.101562 105.082031 29.867188 107.375 29.867188 C 109.667969 29.867188 111.539062 28.136719 111.503906 25.144531 Z M 137.492188 16.777344 L 141.886719 16.777344 L 141.886719 33.511719 L 137.375 33.511719 L 137.375 31.476562 C 136.613281 32.820312 134.855469 33.933594 132.5625 33.933594 C 127.859375 33.933594 124.6875 30.171875 124.6875 25.105469 C 124.6875 20.113281 127.515625 16.390625 132.371094 16.390625 C 134.890625 16.390625 136.6875 17.542969 137.492188 18.847656 Z M 137.453125 25.144531 C 137.453125 22.1875 135.582031 20.460938 133.289062 20.460938 C 130.992188 20.460938 129.160156 22.1875 129.160156 25.144531 C 129.160156 28.101562 130.992188 29.867188 133.289062 29.867188 C 135.582031 29.867188 137.453125 28.101562 137.453125 25.144531 Z M 118.074219 33.511719 L 122.585938 33.511719 L 122.585938 9.367188 L 118.074219 9.367188 Z M 168.679688 16.316406 C 167.074219 16.316406 165.238281 16.851562 164.167969 18.15625 L 164.167969 9.367188 L 159.660156 9.367188 L 159.660156 33.511719 L 164.167969 33.511719 L 164.167969 23.683594 C 164.285156 21.84375 165.390625 20.421875 167.304688 20.421875 C 169.480469 20.421875 170.398438 21.882812 170.398438 23.761719 L 170.398438 33.550781 L 174.910156 33.550781 L 174.910156 22.957031 C 174.871094 19.269531 172.921875 16.316406 168.679688 16.316406 Z M 152.625 23.378906 L 150.179688 22.878906 C 149.226562 22.6875 148.652344 22.1875 148.652344 21.382812 C 148.652344 20.421875 149.492188 19.730469 150.675781 19.730469 C 152.359375 19.730469 153.007812 20.574219 153.160156 21.613281 L 157.058594 21.613281 C 157.023438 19.308594 155.226562 16.316406 150.753906 16.316406 C 147.160156 16.316406 144.523438 18.808594 144.523438 21.804688 C 144.523438 24.144531 145.976562 26.105469 149.1875 26.792969 L 151.480469 27.292969 C 152.777344 27.5625 153.277344 28.175781 153.277344 28.945312 C 153.277344 29.828125 152.472656 30.59375 150.984375 30.59375 C 149.1875 30.59375 148.191406 29.558594 147.964844 28.367188 L 143.949219 28.367188 C 144.179688 30.863281 145.976562 34.050781 151.019531 34.050781 C 155.417969 34.050781 157.59375 31.246094 157.59375 28.523438 C 157.59375 26.066406 155.914062 24.070312 152.625 23.378906 Z M 23.023438 0 L 10.640625 0 L 10.640625 9.367188 L 22.984375 9.367188 Z M 23.023438 0 "/>
</g>
</svg>
